<svg xmlns="http://www.w3.org/2000/svg" viewBox="0 0 245.02 229.25">
  <defs>
    <style>
      .a {
        opacity: 0.95;
      }

      .b {
        fill: #00e3ed;
      }

      .c {
        fill: #d8ffff;
      }

      .d {
        fill: none;
        stroke: #00243e;
        stroke-miterlimit: 10;
        stroke-width: 0.5px;
      }
    </style>
  </defs>
  <title>about-bg2</title>
  <g>
    <g class="a">
      <path class="b" d="M168,229.18l43.82-.07h27.75a3.3,3.3,0,0,0,3.3-3.3v-148H2V226a3.3,3.3,0,0,0,3.3,3.3H25.73"/>
    </g>
    <path class="c" d="M23.23,110.93l46.64-.07c4.94,0,4.94,6.42,9.89,6.42s4.95-6.42,9.89-6.42,4.95,6.42,9.9,6.42,5-6.42,9.9-6.42,5,6.42,9.9,6.42,5-6.42,9.9-6.42,4.95,6.42,9.9,6.42,4.95-6.42,9.9-6.42,5,6.42,9.91,6.42,5-6.42,9.92-6.42h-.08l44.64-.07h28.28a3.3,3.3,0,0,0,3.3-3.3V0H0V107.63a3.3,3.3,0,0,0,3.3,3.3H24.18"/>
    <g>
      <path class="d" d="M122.14,133.23a3,3,0,1,1-6,0"/>
      <g>
        <path class="d" d="M168.94,116.8c-4.95,0-4.95,6.41-9.91,6.41s-5-6.41-9.91-6.41-5,6.41-9.91,6.41-4.94-6.41-9.89-6.41-4.95,6.41-9.9,6.41-5-6.41-9.9-6.41-5,6.41-9.9,6.41-5-6.41-9.9-6.41-5,6.41-9.9,6.41-4.94-6.41-9.89-6.41l-44.63.07"/>
        <line class="d" x1="213.48" y1="116.74" x2="168.84" y2="116.82"/>
      </g>
    </g>
  </g>
</svg>
