<svg xmlns="http://www.w3.org/2000/svg" viewBox="0 0 91.42 62.35">
  <defs>
    <style>
      .a {
        fill: none;
        stroke: #000;
        stroke-miterlimit: 10;
        stroke-width: 0.5px;
      }
    </style>
  </defs>
  <title>folder-icon</title>
  <g>
    <path class="a" d="M6.09.25H85.34a5.84,5.84,0,0,1,5.84,5.84V56.14a6,6,0,0,1-6,6h-79a6,6,0,0,1-6-6V6.09A5.84,5.84,0,0,1,6.09.25Z"/>
    <path class="a" d="M86.18,62V11.17a6,6,0,0,0-6-6H17.62A2.92,2.92,0,0,0,14.7,8.12V12"/>
    <path class="a" d="M.25,12h37a5.83,5.83,0,0,0,5.83-5.83v-1"/>
  </g>
</svg>
