<svg xmlns="http://www.w3.org/2000/svg" viewBox="0 0 579.69 137.31">
  <defs>
    <style>
      .a, .b {
        fill: #fff;
      }

      .b {
        stroke: #fff;
        stroke-miterlimit: 10;
      }
    </style>
  </defs>
  <title>Asset 14</title>
  <g>
    <g>
      <path class="a" d="M0,134.77,8.7,51.34l30.57-5.4,8.43,2.51,5.24,7.07,1.37,7.75-2.53,8.32-6.29,9L39.21,84l7.47,3.34,5.37,7.16,2.05,11.62-2.54,8.22-6.3,9-10.83,5.91L.09,135.31Zm3.82-1,.35-3.06-1,.17L3.05,130l1.18-.21,4-38.67-.43.08-.15-.87.65-.11.35-3.06-1.51.27L7,86.59l1.72-.3L12.4,51.57l-2.9.51L.91,134.28Zm30.35-5.36,10.53-5.74,6-8.61,2.47-8-2-11.19-5.08-6.77-8-3.59L35.57,86l6.94,2.88-.29-.4.68-.56,1.29,1.66,3.52,1.71-.3.83-2.18-1.06,3.05,4.12,2,11.52L47.79,115l-3.28,4.69-10.74,5.78L5,130.56l-.35,3.06Zm-.66-3.76L44,119l3-4.3,2.46-8.09-2-11.09-3.8-5.21-9.11-3.83L9.15,91,5.09,129.66Zm1-39,2.63-1.46L34,82.72,9.56,87l-.35,3.06Zm10.42-5.72,6-8.61,2.46-8.09-1.29-7.32-4.95-6.68-8-2.37L13.26,51.42,9.62,86.13l24.11-4.25,10.53-5.74L47.18,72l2.46-8.09-1.29-7.32L45,52.14l-5.15-1.53-26.7,4.71L13,54.46l26.91-4.75L44.15,51,43,49.5l.68-.56,1.87,2.44,3.05.91-.19.81-2-.54,2.74,3.62,1.37,7.75L48,72.26l-3.19,4.56L35,82.21l3.14,1.44Z"/>
      <path class="a" d="M73.24,135.77,112.18,47l4.41-.78,17.88,79.31-4.63.81-4.29-18.66L87,114.47l-9.27,21.06-4.42.78Zm3.92-1,8.78-20.09-.86.16-.15-.86,1.5-.27,26.76-61-.9-3.83L74.47,135.22Zm48.24-27.93-.62-2.89-35.85,6.32-1.42,3.25Zm-.78-3.75-11.08-49L89.32,109.3Zm-9.06-55.78-2.58.46.84,3.51Zm17.89,77.53L116.14,48.08l-2,4.56,11.31,50.28,1.08-.19.15.86-1.07.19.62,2.88,1-.17.15.87-1,.17,4.14,17.8Z"/>
      <path class="a" d="M163.8,134.88l8.68-83.54,34.33-6.06,8.44,2.51,5.24,7.06,2,11.52L220,74.7l-6.29,9-10.83,5.9-10.66,1.88,25.19,34,.08.43-4.42.78L187.47,92.31l-15,2.64-4.11,39.56-4.52.8Zm3.8-1.11,4.47-42.63-.43.08-.16-.87.65-.11,4.05-38.67-2.9.51-8.59,82.2Zm35-45L213.14,83l6-8.61,2.46-8.09-2-11.09-5-6.67-8-2.37L177,51.42l-4,38.67L201.94,85l10.53-5.74,2.93-4.18L217.85,67,215.9,55.89l-3.33-4.41L207.41,50,177,55.32l-.15-.86,30.68-5.41,4.21,1.25-1.14-1.46.68-.56,1.87,2.44,3.05.9-.2.81-2-.53,2.75,3.62,2,11.52-2.52,8.32L213,79.92l-10.83,5.9L172.93,91l-.35,3.06Zm13.53,36.46-24.9-33.57-2.8.5,25,33.54Z"/>
      <path class="a" d="M261.51,129.51l-4.69-3.28L251,115.49,249,104l1.11-15.73,1.77-12,5.63-12.75,6.29-9,10.73-5.89,11.52-2,8.3,2.42,4.69,3.28,5.11,7,1.43,8.07-4.63.81-1.39-7.85-4.95-6.68-8-2.36-11.09,1.95L265,59l-3,4.31-5.54,12.63-1.71,11.73-1.12,15.62,2,11.31,5.6,10.33,8,2.37,14.85-2.62,10.53-5.75,2.93-4.17,2.61-8.45,4.42-.78.11.64-2.55,8.22-6.29,9-10.73,5.89-15.28,2.69Zm23.22-1.1,10.53-5.74,6-8.61,2.34-7.51-2.8.49-2.47,8-3.19,4.56-10.73,5.89-15.28,2.7-8.44-2.51-5.9-10.83-2-11.52,1.1-15.73,1.78-12,5.63-12.76,3.19-4.56,10.73-5.88,11.51-2,8.43,2.5L300.4,60l1.27,7.21,2.9-.51-1.23-7-5-6.78-4.3-3L286,47.51l-11.08,2-10.53,5.75-6.12,8.73-5.54,12.63L251,88.3l-1.13,15.63,2,11.3,5.62,10.44,4.3,3,8.07,2.35Z"/>
      <path class="a" d="M328.8,135.77,367.74,47l4.41-.78L390,125.53l-4.63.81-4.29-18.66-38.53,6.79-9.27,21.06-4.42.78Zm3.92-1,8.78-20.09-.86.16-.15-.86,1.51-.27,26.75-61-.9-3.83L330,135.22ZM381,106.82l-.62-2.89-35.84,6.32-1.43,3.25Zm-.77-3.75-11.09-49L344.88,109.3Zm-9.07-55.78-2.58.46.84,3.51ZM389,124.82,371.7,48.08l-2,4.56,11.31,50.28,1.07-.19.15.86-1.07.19.62,2.88,1-.17.15.87-1,.17,4.14,17.8Z"/>
      <path class="a" d="M419.34,136.77,428,53.33l4.52-.8L456,124.31,492.19,42l4.41-.77.08.43L488,125.21l-4.52.8-.08-.43,7.15-69-32.8,73.93-4.41.77L431.56,64.47l-7.6,72-4.52.8Zm3.82-1,7.72-73.28-2.19-6.71-8.44,80.5Zm8.58-82.2-2.69.48,2,6.3Zm23.7,72.07-23-70.53-.72,7.23,22,67.27Zm1.41,4.19-1-2.94-1.52,3.37Zm34-76,.92-8.6-35.32,80.36,1,3.37Zm-3.63,70.66,8.22-79.24-3.75,9L484.29,125Zm8.37-82.16-2.69.48-.83,7.91Z"/>
      <path class="a" d="M524.74,134.55,533.41,51,564,45.61l8.43,2.51,5.25,7.07,2,11.51L577.16,75l-6.29,9L560,89.92l-26.59,4.69-4.12,39.57-4.52.8Zm3.79-1.11L533,90.81l-.43.08-.15-.87.64-.11,4.06-38.67-2.91.51L525.63,134Zm31.25-44.36,10.52-5.74,6-8.61,2.46-8.09-2-11.09-5-6.67-8-2.37L538,51.09l-4.05,38.67,25.18-4.45,10.53-5.74,2.93-4.17L575,67.3l-1.95-11.08-3.33-4.41-5.16-1.53L537.89,55l-.15-.86,26.91-4.75,4.21,1.25-1.14-1.46.68-.56,1.87,2.44,3,.91-.19.81-2-.54,2.75,3.62,2,11.52-2.53,8.32-3.19,4.56-10.83,5.91-25.51,4.5-.35,3Z"/>
    </g>
    <g>
      <polygon class="b" points="203.23 2.66 202.13 1.49 199.45 0.51 197.85 0.7 196.92 1.14 195.75 2.23 195.24 3.65 196.05 3.95 196.55 2.57 197.66 1.51 199.19 1.34 201.8 2.29 202.85 3.4 203.03 4.92 202.56 6.21 201.44 7.28 197.85 8.96 189.01 12.52 188.97 12.63 197.73 15.82 198.03 15.01 190.93 12.42 197.66 9.77 202.21 7.65 203.36 6.54 203.86 5.18 203.66 3.59 203.23 2.66"/>
      <path class="b" d="M220.29,1.61l-1.36-.5-2.26-.05-1.83.86-2.08,1.52-3,4.17-.73,2,0,2.26.43.93L210.49,14l1.37.49,2.25,0,1.84-.85L218,12.15,221,8l.73-2,0-2.26-.43-.93ZM221,3.52,221,5.69l-.72,2-3,4.15-2,1.49-.85.4-2.21-.06-1.29-.46-1.05-1.12.06-2.16.71-2,3-4.16,2.05-1.49.85-.39,2.21.05,1.29.47Z"/>
      <path class="a" d="M288.23,6.47l0-.07-1.1-1.18-2-.73-2.24-.07-2.08,1.52-1.42,1.77-1,2.69.18,1.57.34.72-.81.57,0,.09.78.28.51-.35.75.82,2,.73,2.25.07,2.07-1.52,1.42-1.77,1-2.69-.18-1.57-.1-.21,1.23-.84,0-.09L289,5.93Zm-8.94,5.3-.11-1.11,1-2.63,1.38-1.73,1.43-1,1.85,0,2,.72.69,1-7.83,5.24Zm8.59-4.2L288,8.66,287,11.29,285.66,13l-1.43,1L282.38,14l-2-.71-.36-.5Zm.78,1.33-1,2.63-1.38,1.73-2,1.47-2.16-.06-2-.71-.71-.75.46-.33.4.55,2,.74,1.68.05-.44.32.08.13.61-.44h.38l0-.16h-.19l1.28-.93,1.42-1.78,1-2.68-.09-.87.22.32.13-.11-.4-.55.39-.25.07.16Z"/>
      <polygon class="b" points="354.03 2.97 351.76 2.92 351.47 3.71 351.58 3.75 353.82 3.8 355.9 2.84 347.64 14.22 347.61 14.32 348.4 14.61 357.49 2.09 357.52 1.99 356.76 1.72 354.03 2.97"/>
      <path class="b" d="M374.75,3.15,373,1.73l-2.69-1L368,.7l-.91.42-1.18,1.11-.49,1.37.18,1.56.55,1.21-1.85.46-1.86.87L361,9.46l-.49,1.37.18,1.61,1.78,1.42,2.67,1,2.93.31.93-.43,1.18-1.12.74-2L370.77,10,370,8.43l1.41-.35,1.81-.84,1.18-1.12.49-1.36Zm-13.38,7.93.47-1.28,1.38-1.73.88-.41,2.43-.6,2.38,1.47,0,.16.18,0,.42.26.41.9.17,1.52-.7,1.91-1.09,1.06L365.46,14l-2.63-1L361.47,12Zm5.47-4.83-.41-.87-.17-1.53.47-1.28,1.08-1,2.19.05,2.65,1L374,3.61l.11.89-.47,1.29-1.15,1.08-.85.4-2.25.53Z"/>
    </g>
  </g>
</svg>
