<svg xmlns="http://www.w3.org/2000/svg" viewBox="0 0 579.69 181.34">
  <defs>
    <style>
      .a, .b {
        fill: #fff;
      }

      .b {
        stroke: #fff;
        stroke-miterlimit: 10;
      }
    </style>
  </defs>
  <title>Asset 1</title>
  <g>
    <g>
      <g>
        <path class="a" d="M0,131.77,8.7,48.33l30.57-5.39,8.43,2.51,5.24,7.07,1.37,7.75-2.53,8.32-6.29,9L39.21,81l7.47,3.34,5.37,7.16,2.05,11.62-2.54,8.22-6.3,9-10.83,5.9L.09,132.31Zm3.82-1,.35-3-1,.17L3.05,127l1.18-.21,4-38.67-.43.07-.15-.86.65-.11.35-3.06-1.51.27L7,83.59l1.72-.31L12.4,48.57l-2.9.51L.91,131.28Zm30.35-5.35,10.53-5.74,6-8.61,2.47-8-2-11.2-5.08-6.76-8-3.59L35.57,83l6.94,2.88-.29-.39.68-.56,1.29,1.66,3.52,1.71-.3.83-2.18-1.06,3.05,4.12,2,11.52L47.79,112l-3.28,4.69-10.74,5.78L5,127.56l-.35,3.05Zm-.66-3.77L44,116l3-4.31,2.46-8.09-2-11.08-3.8-5.21-9.11-3.83L9.15,88,5.09,126.66Zm1-39,2.63-1.47L34,79.72,9.56,84l-.35,3.06ZM44.92,76.9l6-8.61,2.46-8.09-1.29-7.32-4.95-6.67-8-2.37L13.26,48.42,9.62,83.13l24.11-4.25,10.53-5.74L47.18,69l2.46-8.09-1.29-7.32L45,49.14l-5.15-1.53-26.7,4.71L13,51.46l26.91-4.75L44.15,48,43,46.5l.68-.56,1.87,2.44,3.05.91-.19.81-2-.54,2.74,3.62,1.37,7.75L48,69.26l-3.19,4.55L35,79.21l3.14,1.44Z"/>
        <path class="a" d="M73.24,132.77,112.18,44l4.41-.78,17.88,79.3-4.63.82-4.29-18.67L87,111.47l-9.27,21.06-4.42.78Zm3.92-1,8.78-20.08-.86.15-.15-.86,1.5-.26,26.76-61-.9-3.84L74.47,132.22Zm48.24-27.93-.62-2.88-35.85,6.32-1.42,3.25Zm-.78-3.74-11.08-49L89.32,106.29Zm-9.06-55.78-2.58.45.84,3.52Zm17.89,77.52L116.14,45.07l-2,4.57,11.31,50.27,1.08-.19.15.87-1.07.19.62,2.88,1-.17.15.86-1,.17,4.14,17.81Z"/>
        <path class="a" d="M163.8,131.88l8.68-83.55,34.33-6,8.44,2.51,5.24,7.06,2,11.52L220,71.69l-6.29,9-10.83,5.91-10.66,1.88,25.19,34,.08.43-4.42.78L187.47,89.3l-15,2.64-4.11,39.57-4.52.8Zm3.8-1.12,4.47-42.62-.43.07-.16-.86.65-.11,4.05-38.67-2.9.51-8.59,82.2Zm35-45L213.14,80l6-8.61,2.46-8.09-2-11.09-5-6.68-8-2.36L177,48.42l-4,38.67L201.94,82l10.53-5.74,2.93-4.18L217.85,64,215.9,52.88l-3.33-4.4-5.16-1.54L177,52.32l-.15-.86L207.48,46l4.21,1.26-1.14-1.46.68-.57,1.87,2.45,3.05.9-.2.81-2-.53,2.75,3.62,2,11.51-2.52,8.33L213,76.92l-10.83,5.9L172.93,88,172.58,91Zm13.53,36.45-24.9-33.56-2.8.49,25,33.55Z"/>
        <path class="a" d="M261.51,126.51l-4.69-3.28L251,112.49,249,101l1.11-15.73,1.77-12,5.63-12.75,6.29-9,10.73-5.89,11.52-2,8.3,2.42,4.69,3.28,5.11,7,1.43,8.08-4.63.81-1.39-7.86-4.95-6.67-8-2.37-11.09,2L265,56l-3,4.31L256.49,72.9l-1.71,11.74-1.12,15.62,2,11.3,5.6,10.34,8,2.36,14.85-2.62,10.53-5.74,2.93-4.18,2.61-8.45,4.42-.78.11.65-2.55,8.22-6.29,9-10.73,5.88-15.28,2.7Zm23.22-1.1,10.53-5.74,6-8.61,2.34-7.51-2.8.49-2.47,8-3.19,4.56-10.73,5.89-15.28,2.69-8.44-2.5-5.9-10.84-2-11.51,1.1-15.74,1.78-12,5.63-12.76,3.19-4.56,10.73-5.88,11.51-2,8.43,2.51L300.4,57l1.27,7.21,2.9-.51-1.23-7-5-6.78-4.3-3L286,44.51l-11.08,2L264.38,52.2l-6.12,8.74-5.54,12.63L251,85.3l-1.13,15.63,2,11.3,5.62,10.44,4.3,3,8.07,2.35Z"/>
        <path class="a" d="M328.8,132.77,367.74,44l4.41-.78L390,122.52l-4.63.82-4.29-18.67-38.53,6.8-9.27,21.06-4.42.78Zm3.92-1,8.78-20.08-.86.15-.15-.86,1.51-.26,26.75-61-.9-3.84L330,132.22ZM381,103.81l-.62-2.88-35.84,6.32-1.43,3.25Zm-.77-3.74-11.09-49-24.22,55.21Zm-9.07-55.78-2.58.45.84,3.52ZM389,121.81,371.7,45.07l-2,4.57,11.31,50.27,1.07-.19.15.87-1.07.19.62,2.88,1-.17.15.86-1,.17,4.14,17.81Z"/>
        <path class="a" d="M419.34,133.76,428,50.33l4.52-.8L456,121.31,492.19,39l4.41-.78.08.43L488,122.21l-4.52.8-.08-.43,7.15-69-32.8,73.92-4.41.78L431.56,61.47l-7.6,72-4.52.79Zm3.82-1,7.72-73.28-2.19-6.72-8.44,80.51Zm8.58-82.2-2.69.48,2,6.3Zm23.7,72.06-23-70.52-.72,7.23,22,67.26Zm1.41,4.19-1-2.93-1.52,3.37Zm34-76,.92-8.59-35.32,80.36,1,3.37Zm-3.63,70.67,8.22-79.24-3.75,9L484.29,122Zm8.37-82.16-2.69.48-.83,7.91Z"/>
        <path class="a" d="M524.74,131.55,533.41,48,564,42.61l8.43,2.51,5.25,7.06,2,11.52L577.16,72l-6.29,9L560,86.92l-26.59,4.69-4.12,39.57-4.52.8Zm3.79-1.12L533,87.81l-.43.07-.15-.86.64-.11,4.06-38.67-2.91.51L525.63,131Zm31.25-44.35,10.52-5.74,6-8.61,2.46-8.09-2-11.09-5-6.67-8-2.37L538,48.09l-4.05,38.67,25.18-4.45,10.53-5.74,2.93-4.18L575,64.3l-1.95-11.08-3.33-4.41-5.16-1.53L537.89,52l-.15-.87,26.91-4.74,4.21,1.25-1.14-1.46.68-.57,1.87,2.45,3,.91-.19.81-2-.54,2.75,3.62,2,11.52-2.53,8.32-3.19,4.56-10.83,5.9-25.51,4.5-.35,3.06Z"/>
      </g>
      <g>
        <polygon class="b" points="203.23 2.66 202.13 1.49 199.45 0.51 197.85 0.7 196.92 1.14 195.75 2.23 195.24 3.65 196.05 3.95 196.55 2.57 197.66 1.51 199.19 1.34 201.8 2.29 202.85 3.4 203.03 4.92 202.56 6.21 201.44 7.28 197.85 8.96 189.01 12.52 188.97 12.63 197.73 15.82 198.03 15.01 190.93 12.42 197.66 9.77 202.21 7.65 203.36 6.54 203.86 5.18 203.66 3.59 203.23 2.66"/>
        <path class="b" d="M220.29,1.61l-1.36-.5-2.26-.05-1.83.86-2.08,1.52-3,4.17-.73,2,0,2.26.43.93L210.49,14l1.37.49,2.25,0,1.84-.85L218,12.15,221,8l.73-2,0-2.26-.43-.93ZM221,3.52,221,5.69l-.72,2-3,4.15-2,1.49-.85.4-2.21-.06-1.29-.46-1.05-1.12.06-2.16.71-2,3-4.16,2.05-1.49.85-.39,2.21.05,1.29.47Z"/>
        <path class="b" d="M288.23,6.47l0-.07-1.1-1.18-2-.73-2.24-.07-2.08,1.52-1.42,1.77-1,2.69.18,1.57.34.72-.81.57,0,.09.78.28.51-.35.75.82,2,.73,2.25.07,2.07-1.52,1.42-1.77,1-2.69-.18-1.57-.1-.21,1.23-.84,0-.09L289,5.93Zm-8.94,5.3-.11-1.11,1-2.63,1.38-1.73,1.43-1,1.85,0,2,.72.69,1-7.83,5.24Zm8.59-4.2L288,8.66,287,11.29,285.66,13l-1.43,1L282.38,14l-2-.71-.36-.5Zm.78,1.33-1,2.63-1.38,1.73-2,1.47-2.16-.06-2-.71-.71-.75.46-.33.4.55,2,.74,1.68.05-.44.32.08.13.61-.44h.38l0-.16h-.19l1.28-.93,1.42-1.78,1-2.68-.09-.87.22.32.13-.11-.4-.55.39-.25.07.16Z"/>
        <polygon class="b" points="354.03 2.97 351.76 2.92 351.47 3.71 351.58 3.75 353.82 3.8 355.9 2.84 347.64 14.22 347.61 14.32 348.4 14.61 357.49 2.09 357.52 1.99 356.76 1.72 354.03 2.97"/>
        <path class="b" d="M374.75,3.15,373,1.73l-2.69-1L368,.7l-.91.42-1.18,1.11-.49,1.37.18,1.56.55,1.21-1.85.46-1.86.87L361,9.46l-.49,1.37.18,1.61,1.78,1.42,2.67,1,2.93.31.93-.43,1.18-1.12.74-2L370.77,10,370,8.43l1.41-.35,1.81-.84,1.18-1.12.49-1.36Zm-13.38,7.93.47-1.28,1.38-1.73.88-.41,2.43-.6,2.38,1.47,0,.16.18,0,.42.26.41.9.17,1.52-.7,1.91-1.09,1.06L365.46,14l-2.63-1L361.47,12Zm5.47-4.83-.41-.87-.17-1.53.47-1.28,1.08-1,2.19.05,2.65,1L374,3.61l.11.89-.47,1.29-1.15,1.08-.85.4-2.25.53Z"/>
      </g>
    </g>
    <g>
      <path class="b" d="M194.91,179.08l-1-1.17-.88-3.23.17-3.2,1.26-4.14,1.22-3.09,2.29-3.07,2.24-2,3.23-.91,4.25.22,2.08,1.16,1.05,1.17.88,3.23-.17,3.2-1.27,4.14L209,174.47l-2.3,3.06-2.23,2-3.24.91-4.25-.22Zm6.28,1.14,3.17-.89,2.17-2,2.26-3,1.18-3,1.27-4.11.17-3.15-.86-3.13-1-1.08-2-1.12-4.13-.22-3.17.89-2.18,2-2.26,3-1.18,3-1.27,4.11-.16,3.14.86,3.14,1,1.07,2,1.13ZM194.94,178l-.91-3.26.16-3.21,1.27-4.14,1.22-3.09,2.29-3.06,1.13-1,3.24-.91,4.25.22,2.1,1.19.91,3.26-.17,3.21-1.27,4.14L208,174.42l-2.29,3.06-1.14,1-3.23.91-4.25-.22Zm6.3,1.17,3.17-.89,1.07-1,2.27-3,1.18-3,1.26-4.11.17-3.14-.86-3.11-2-1.12-4.14-.22-3.17.88-1.07,1-2.26,3-1.18,3-1.27,4.1-.16,3.15.85,3.11,2,1.12Z"/>
      <path class="b" d="M228.15,179.67l7.48-21.77,1.26.06,1.83,20.64,14.76-19.77,1.23.07V159l-7.48,21.8-1.26-.06v-.12l6.17-18-13.33,17.74-1.23-.06-1.7-19.23-6.48,18.8-1.26-.07Zm1.08,0,6.59-19.12-.17-1.93-7.23,21Zm7.38-21.45-.75,0L236,160Zm1.88,20.73-1.79-20.28-.64,1.89,1.72,19.35Zm.12,1.21-.08-.85-.61.81Zm13.78-18.23.78-2.24L238.76,179l.07,1Zm-5.34,18.67,7.1-20.68-1.56,2.17-6.34,18.47Zm7.32-21.45-.75,0-.71,2.07Z"/>
      <path class="b" d="M267.79,179.75l15.9-21.33,1.22.07-.12,22.31-1.28-.07v-5.26l-10.72-.56L269,180l-1.23-.07Zm1.11,0,3.59-4.83h-.24v-.24l.42,0L283.6,160v-1.08l-15.45,20.75Zm14.62-4.49,0-.81-10-.52-.58.78Zm0-1,.06-13.78-9.89,13.27Zm1,6.36.11-21.59-.81,1.1-.08,14.15h.3v.24l-.3,0,0,.82H284v.24h-.27v5Zm0-21.83-.72,0v1Z"/>
      <path class="b" d="M304.28,179.81l7.48-21.8,1.26.06v.15L309.5,168.4l12.34.65,3.55-10.33,1.26.07v.15l-7.48,21.77-1.26-.06v-.12l3.51-10.21-12.34-.65L305.53,180l-1.26-.07Zm1.08-.06,3.83-11.12h-.12v-.24h.18l3.48-10.09-.81,0-7.38,21.45Zm16.13-9.67.28-.79-12.34-.65-.28.79ZM319,180.46,326.36,159l-.8,0-3.83,11.12h.12v.24h-.18l-3.48,10.09Z"/>
      <path class="b" d="M339.72,179.75l15.9-21.33,1.23.07-.12,22.31-1.29-.07v-5.26l-10.73-.56L341,180l-1.23-.07Zm1.12,0,3.58-4.83h-.23v-.24l.42,0L355.54,160v-1.08l-15.45,20.75Zm14.62-4.49v-.81l-10-.52-.58.78Zm0-1,.06-13.78-9.89,13.27Zm1,6.36.12-21.59-.81,1.1-.09,14.15h.3v.24l-.3,0v.82H356v.24h-.27v5Zm0-21.83-.72,0v1Z"/>
    </g>
  </g>
</svg>
