<svg xmlns="http://www.w3.org/2000/svg" viewBox="0 0 330.87 27.01">
  <defs>
    <style>
      .a {
        fill: #fff;
        stroke: #fff;
        stroke-linecap: round;
        stroke-linejoin: round;
      }
    </style>
  </defs>
  <title>Asset 8</title>
  <g>
    <path class="a" d="M.5,26.33,17.72.5h1.44l1.22,26h-1.5l-.32-6.13H6L1.94,26.51H.5Zm1.3-.1,3.88-5.85H5.4V20.1h.49L17.72,2.36,17.65,1.1.92,26.23ZM18.56,20.1l0-.94H6.87l-.63.94Zm0-1.22L17.76,2.81,7.05,18.88ZM18.77.78h-.84L18,1.94ZM20.1,26.23,18.91,1.06,18,2.39l.77,16.49h.35v.28h-.35l0,.94h.32v.28h-.32l.32,5.85Z"/>
    <path class="a" d="M38.47.5H40v23L52,.5h1.44v23l12-23h1.43V.68L53.39,26.51H52V3.62l-12,22.89H38.47ZM39.7,24V.78h-1v25Zm0,2.21V24.62l-.84,1.61ZM52,3.06V1.2L40,24.09v1.68ZM53.18,24V.78h-1v25Zm0,2.24V24.62l-.84,1.61ZM66.55.78h-.88L53.46,24.06v1.71Z"/>
    <path class="a" d="M67.94,25.28,66.65,24l-1.23-3.71V16.53l1.23-4.9L67.87,8l2.49-3.71,2.49-2.49L76.56.5h5L84,1.73,85.31,3l1.22,3.71v3.75l-1.22,4.9-1.23,3.67L81.6,22.76l-2.49,2.49L75.4,26.51h-5Zm7.39.95L79,25l2.42-2.41,2.45-3.68L85,15.31l1.22-4.87V6.77L85.06,3.16,83.87,2,81.46.78H76.63L73,2,70.57,4.42,68.12,8.1l-1.19,3.6L65.7,16.57v3.67l1.19,3.61L68.08,25l2.42,1.19ZM67.91,24l-1.26-3.74V16.53l1.22-4.9L69.1,8l2.48-3.71L72.85,3l3.71-1.26h5L84.05,3l1.26,3.74v3.75l-1.23,4.9-1.22,3.67-2.49,3.71L79.11,24,75.4,25.28h-5Zm7.42,1L79,23.78l1.19-1.19,2.45-3.68,1.19-3.6L85,10.44V6.77L83.84,3.2,81.46,2H76.63L73,3.23l-1.2,1.19L69.34,8.1l-1.19,3.6-1.22,4.87v3.67l1.19,3.57L70.5,25Z"/>
    <path class="a" d="M87.47,26.37,94.86.5H106l2.52,1.26,1.26,2.52V8l-1.26,2.48L106.06,13l-3.74,1.26H98.85l6.06,12.11v.14h-1.44L97.31,14.26H92.44l-3.5,12.25H87.47Zm1.26-.14L92.51,13h-.14v-.28h.21L96,.78h-1L87.79,26.23ZM102.28,14l3.64-1.23,2.38-2.38L109.53,8V4.35L108.34,2,106,.78H96.3l-3.44,12h9.42l3.64-1.22,1.16-1.16L108.3,8V4.35l-.8-1.57L106,2H96.05V1.73h10l1.26.63L107,1.83l.24-.14.46.88.91.45-.11.25L107.92,3l.66,1.29V8l-1.26,2.48-1.26,1.26L102.32,13H92.79l-.28,1Zm2.24,12.25-6-12h-.91l6,12Z"/>
    <path class="a" d="M109.52,26.37,116.91.5h1.47V.68L114.6,13.94,131.68.5h1.4V.71L119.6,11.63l6.13,14.7v.18H124.3l-5.85-13.93-4.52,3.67L111,26.51h-1.47Zm1.26-.14,2.77-9.66-.25.21-.17-.25.56-.45L118.06.78h-.94l-7.28,25.45Zm7.57-13.93-.29-.7.25-.11.25.63,14-11.34h-.77L114.46,14.4l-.39,1.36Zm7,13.93-6-14.42-.74.59,5.81,13.83Z"/>
    <path class="a" d="M141.37,26.37,148.76.5h1.47V.68l-7.39,25.83h-1.47Zm1.26-.14L149.91.78H149l-7.28,25.45Z"/>
    <path class="a" d="M150,26.37,157.33.5h1.44l7.77,23.42L173.26.5h1.47V.64l-7.39,25.87h-1.43L158.14,3.09l-6.72,23.42H150Zm1.26-.14L158,2.64l-.52-1.54-7.18,25.13ZM158.52.78h-.91l.49,1.4Zm7.88,23.63L158.7,1.17l-.42,1.43L166,25.84Zm.66,1.82-.48-1.4-.42,1.4ZM174.42.78h-.95l-6.76,23.59.53,1.54Z"/>
    <path class="a" d="M185.47,26.37,192.86.5h9.94l2.52,1.26,1.26,2.52V8l-1.26,2.48L202.83,13l-3.74,1.26h-8.65l-3.5,12.25h-1.47Zm1.26-.14L190.51,13h-.14v-.28h.21L194,.78h-.94l-7.28,25.45ZM199.05,14l3.64-1.23,2.38-2.38L206.3,8V4.35L205.11,2,202.73.78h-8.44l-3.43,12h8.19l3.64-1.22,1.16-1.16L205.07,8V4.35l-.8-1.57L202.73,2h-8.68V1.73h8.75l1.26.63-.28-.53.24-.14.46.88.91.45-.11.25L204.69,3l.66,1.29V8l-1.26,2.48-1.26,1.26L199.09,13h-8.3l-.28,1Z"/>
    <path class="a" d="M205.14,26.37,212.53.5h11.16l2.52,1.26,1.26,2.52V8l-1.26,2.48L223.73,13,220,14.26h-3.46l6,12.11v.14h-1.43L215,14.26h-4.87l-3.5,12.25h-1.47Zm1.26-.14L210.18,13H210v-.28h.21l3.43-12h-.94l-7.28,25.45ZM220,14l3.64-1.23L226,10.37,227.19,8V4.35L226,2,223.62.78H214l-3.43,12H220l3.64-1.22,1.15-1.16L226,8V4.35l-.8-1.57L223.62,2h-9.9V1.73h10l1.26.63-.28-.53.25-.14.46.88.91.45-.11.25-.6-.28.67,1.29V8L225,10.51l-1.26,1.26L220,13h-9.52l-.28,1Zm2.24,12.25-6-12h-.91l6,12Z"/>
    <path class="a" d="M230.94,25.28,229.64,24l-1.22-3.71V16.53l1.22-4.9L230.87,8l2.48-3.71,2.49-2.49L239.55.5h5L247,1.73,248.3,3l1.22,3.71v3.75l-1.22,4.9-1.23,3.67-2.48,3.71-2.49,2.49-3.71,1.26h-5Zm7.38.95L242,25l2.42-2.41,2.45-3.68,1.19-3.6,1.22-4.87V6.77l-1.19-3.61L246.86,2,244.45.78h-4.83L236,2l-2.42,2.41L231.11,8.1l-1.19,3.6-1.22,4.87v3.67l1.19,3.61L231.08,25l2.41,1.19ZM230.9,24l-1.26-3.74V16.53l1.23-4.9L232.09,8l2.49-3.71L235.84,3l3.71-1.26h5L247,3l1.26,3.74v3.75l-1.23,4.9-1.22,3.67-2.49,3.71L242.1,24l-3.71,1.26h-5Zm7.42,1L242,23.78l1.19-1.19,2.45-3.68,1.19-3.6L248,10.44V6.77L246.83,3.2,244.45,2h-4.83L236,3.23l-1.19,1.19L232.34,8.1l-1.19,3.6-1.23,4.87v3.67l1.19,3.57L233.49,25Z"/>
    <path class="a" d="M254.21,25.28,252.92,24l-1.23-3.71V16.53l1.23-4.9L254.14,8l2.49-3.71,2.48-2.49L262.82.5h3.75l2.48,1.23L270.35,3l1.22,2.49V8.13h-1.5V5.58L268.88,3.2,266.5,2h-3.61l-3.64,1.22-1.19,1.19L255.61,8.1l-1.19,3.6-1.22,4.87v3.67l1.19,3.57L256.77,25h4.83l3.64-1.22,1.15-1.16,1.3-2.52h1.43v.21l-1.26,2.45-2.48,2.49-3.71,1.26h-5Zm7.39.95L265.24,25l2.38-2.38,1.15-2.24h-.91l-1.22,2.38L265.38,24l-3.71,1.26h-5L254.18,24l-1.26-3.74V16.53l1.22-4.9L255.37,8l2.48-3.71L259.11,3l3.71-1.26h3.75L269.09,3l1.26,2.52V7.85h.94V5.58L270.1,3.16,268.91,2,266.5.78h-3.61L259.25,2l-2.41,2.41L254.39,8.1l-1.19,3.6L252,16.57v3.67l1.19,3.61L254.35,25l2.42,1.19Z"/>
    <path class="a" d="M271.29,26.33,278.68.5H292.4V2H279.87V1.73h12.25V.78h-12l-3.43,12H287.5v1.51H276.26L273.18,25h13.09v1.51h-15Zm1.26-.1.28-.95h-.31V25h.38l3.43-12h-.14v-.28h.21l3.43-12h-.94l-7.28,25.45Zm13.44,0v-.95H273.11l-.28.95ZM287.22,14V13H276.61l-.24,1Z"/>
    <path class="a" d="M293.41,25.25,292.15,24l-1.26-2.49V18.88h1.51v2.55l1.19,2.38L297.16,25h3.67l3.57-1.22,1.19-2.35v-3.6l-1.19-2.38-7.31-3.68-1.26-1.26L294.57,8V5.51L295.83,3l1.26-1.26L300.8.5h3.74l3.71,1.26L309.51,3l1.26,2.45V8.13h-1.5V5.58L308.08,3.2,304.51,2h-3.68l-3.57,1.22-1.19,2.35V8l1.19,2.38L304.58,14l1.26,1.26,1.26,2.49V21.5L305.84,24l-1.26,1.26-3.71,1.26h-3.75Zm7.39,1L304.44,25l1.15-1.15,1.23-2.42v-3.6l-1.23-2.42-1.15-1.15-7.39-3.71L295.79,8V5.51L297.09,3l3.71-1.26h3.74L308.29,3l1.26,2.52V7.85h.95V5.54l-1.23-2.38L308.08,2,304.47.78h-3.6L297.23,2l-1.16,1.15-1.22,2.42V8l1.22,2.41,1.16,1.16,7.38,3.71,1.26,2.52V21.5L304.58,24l-3.71,1.26h-3.75L293.38,24l-1.26-2.52V19.16h-.95v2.27l1.23,2.42L293.59,25l3.6,1.19Z"/>
    <path class="a" d="M313,25.25,311.75,24l-1.26-2.49V18.88H312v2.55l1.19,2.38L316.76,25h3.67L324,23.78l1.19-2.35v-3.6L324,15.45l-7.31-3.68-1.26-1.26L314.17,8V5.51L315.43,3l1.26-1.26L320.4.5h3.74l3.71,1.26L329.11,3l1.26,2.45V8.13h-1.5V5.58L327.68,3.2,324.11,2h-3.68l-3.57,1.22-1.19,2.35V8l1.19,2.38L324.18,14l1.26,1.26,1.26,2.49V21.5L325.44,24l-1.26,1.26-3.71,1.26h-3.75Zm7.39,1L324,25l1.15-1.15,1.23-2.42v-3.6l-1.23-2.42L324,14.26l-7.39-3.71L315.39,8V5.51L316.69,3l3.71-1.26h3.74L327.89,3l1.26,2.52V7.85h.94V5.54l-1.22-2.38L327.68,2,324.07.78h-3.6L316.83,2l-1.16,1.15-1.22,2.42V8l1.22,2.41,1.16,1.16,7.38,3.71,1.26,2.52V21.5L324.18,24l-3.71,1.26h-3.75L313,24l-1.26-2.52V19.16h-1v2.27L312,23.85,313.19,25l3.6,1.19Z"/>
  </g>
</svg>
