<svg xmlns="http://www.w3.org/2000/svg" viewBox="0 0 111.07 115.7">
  <defs>
    <style>
      .a {
        fill: #fff;
      }
    </style>
  </defs>
  <title>Asset 9</title>
  <g>
    <path class="a" d="M23.77,41.29,68.46.59l2.71.68L61.24,51l-2.84-.71,2.29-11.72L37,32.65,26.4,42.29l-2.72-.67Zm2.49.41,10.1-9.22-.53-.13.13-.53.92.23L67.59,4.1l.46-2.42L24.61,41.28ZM60.82,38l.38-1.8-22-5.49-1.63,1.49Zm.51-2.33L67.44,5,39.64,30.28Zm-.48,14.63,9.6-48.11-2.28,2.1L61.86,35.82l.66.16-.13.53-.66-.16-.38,1.8.6.15-.14.53-.59-.15L59.06,49.87Zm9.47-48.7-1.59-.4-.41,2.22Z"/>
    <path class="a" d="M82.16,45.39,108.29,0l2.78.69L111,1,84.87,46.35l-2.78-.7Zm2.44.33L110.34,1.07,108.55.63,82.82,45.27Z"/>
    <path class="a" d="M2.4,106.65.57,103.59,0,96l1.76-7.08,4.62-8.68,4.05-6.37L16.87,68l5.87-3.52,7.6-.63,7.08,1.76,4.11,3.48,1.84,3.06,1.14,5.27-1.23,5-2.84-.71,1.2-4.82-1.13-5.06-3.94-3.37-6.81-1.7-7.45.6L19.5,69.05l-6.36,5.79L9.2,81.09,4.59,89.71,2.86,96.65,3.43,104l3.93,3.36,9.13,2.28,7.45-.6,2.83-1.76,3.35-3.87,3.3-6.2L20.2,93.88,20.91,91,37.63,95.2l-.08.33-4.64,8.75-3.53,4-5.86,3.52-7.61.63-9.39-2.34Zm13.51,5.26,7.46-.6L29,107.94,32.42,104l4.49-8.44-1.79-.44-.91,1.67.53.13-.13.53L34,97.3l-3.33,6.34-3.55,4.1-3,1.79-7.6.63L7.1,107.82l-4.17-3.57-.62-7.67,1.77-7.07L8.7,80.83l4-6.37,6.45-5.84,3-1.79,7.6-.63L36.84,68,41,71.53l1.19,5.36-1.1,4.43,1.78.44L44,77.46l-1.11-5.12-1.69-2.81-4-3.38-6.81-1.7-7.45.6-5.7,3.42-6.36,5.79L6.88,80.51l-4.6,8.62L.55,96.07l.55,7.37,1.68,2.81,4,3.39ZM33.69,96.68l.9-1.67L21.3,91.69l-.44,1.79Z"/>
    <path class="a" d="M46.3,106,91,65.31l2.72.68L83.78,115.7,80.93,115l2.29-11.72-23.67-5.9L48.93,107l-2.71-.67Zm2.49.42,10.1-9.22-.53-.13.13-.53.93.23,30.7-27.95.46-2.42L47.14,106Zm34.56-3.68.38-1.8-22-5.49-1.63,1.49Zm.51-2.33L90,69.69,62.17,95ZM83.38,115,93,66.93,90.7,69l-6.31,31.51.66.16-.13.53-.66-.16-.38,1.8.6.15-.13.53-.6-.15-2.16,11.19Zm9.47-48.71-1.59-.39-.41,2.21Z"/>
  </g>
</svg>
