<svg xmlns="http://www.w3.org/2000/svg" viewBox="0 0 159.92 28.37">
  <defs>
    <style>
      .a {
        fill: #fff;
      }
    </style>
  </defs>
  <title>Asset 13</title>
  <g>
    <g>
      <path class="a" d="M1.8,27.31.21,4.88l1.15-.42,0,.13L2.24,16.1,11.81.65l1.1-.4L13,.42,5.51,12.85l9,9.79.05.14-1.12.41L4.87,13.92,2.38,18.1,3,27l-1.16.42Zm1-.47-.59-8.38L2,18.69l-.21-.14L2.13,18,1.19,4.77.45,5,2,27.11Zm2-13.11-.42-.47.16-.15.37.42L12.58.62,12,.84,2.26,16.49l.08,1.19Zm9.51,8.93L5.39,13.05l-.4.67,8.51,9.2Z"/>
      <path class="a" d="M1.73,27.67l-.12-.35L0,4.74l1.48-.53.13.37.78,10.9,9.29-15L13,0l.15.44,0,.08L5.75,12.82l8.94,9.72.14.36-1.44.52L4.9,14.25l-2.32,3.9.63,9Zm-.12-9,.58,8.19.36-.13L2,18.91ZM5.23,13.7l8.33,9,.32-.11L5.43,13.37ZM.66,5.17,1.6,18.54,1.93,18,1,5Zm1.8,11.37,0,.5,2-3.28-.16-.19ZM4.64,13l.15.17L12.12,1h0Z"/>
    </g>
    <g>
      <path class="a" d="M26.24,28,32.38,2.76l1.12-.41,8.4,20.08-1.18.43-2-4.72-9.84,3.58-1.46,6-1.13.41Zm1-.45,1.38-5.71-.22.09-.08-.22.38-.15L32.91,4.22l-.42-1-6,24.53Zm11.41-9.61-.3-.73-9.15,3.33-.23.92Zm-.38-1-5.2-12.4L29.25,20.25Zm-5-14.29-.66.24.39.89ZM41.6,22.29,33.47,2.86l-.31,1.3,5.32,12.73.28-.1.08.22-.28.1.3.73.25-.09.08.22-.25.09,1.92,4.5Z"/>
      <path class="a" d="M26.17,28.37,26,28l0-.06L32.21,2.62l1.4-.51.07.17,8.49,20.27-1.56.56-2-4.72-9.56,3.48-1.47,6Zm2-6.48-1.35,5.58.24-.09,1.27-5.24-.06,0Zm11-3.72L41,22.31l.37-.13L33.52,3.5l-.15.64,5.22,12.5.29-.1.21.59-.27.09.15.37.26-.09.21.59ZM32.54,3.87,28.27,21.49l.25-.09L32.7,4.24Zm-3.18,16.8-.12.46,9.14-3.32-.15-.37ZM33.11,5.2,29.52,19.94,38,16.85ZM32.88,3,33,3.2,33,3Z"/>
    </g>
    <g>
      <path class="a" d="M54.54,27.83,52.94,5.4,54.07,5l12.8,16.17L65.45.85,66.61.43l0,.11L68.25,23l-1.13.41L54.32,7.21l1.42,20.31-1.16.42Zm1-.47L54.05,6.9,53.2,5.84l1.55,21.79ZM54,5.28l-.72.26.79,1ZM66.9,21.59,54.21,5.53l.08,1.25L67,22.83ZM66.44.74,65.7,1l1.44,20.46L68,22.53ZM68,22.83l-.79-1,.07,1.22Z"/>
      <path class="a" d="M54.46,28.19l-.11-.34L52.74,5.27l1.4-.51.08.11L66.63,20.54,65.25.71,66.72.18l.12.34L68.45,23.1l-1.4.51L67,23.5,54.56,7.83l1.38,19.83Zm-1-21.74,1.49,20.91.35-.13L53.86,7Zm14,16,0,.35.21-.07ZM54.48,6.71,66.75,22.22l0-.56L54.44,6.15ZM67.33,21.39l.42.53L66.26,1l-.36.13ZM53.57,5.63l.23.28,0-.35Z"/>
    </g>
    <g>
      <path class="a" d="M83.79,27.11,82.2,4.7,93,.78,93.41,2,83.56,5.54l-.08-.22,9.63-3.5-.27-.74L83.41,4.51l.73,10.39,8.49-3.1L93.06,13,84.24,16.2l.65,9.32,10.28-3.75L95.6,23,83.84,27.24Zm1-.45,0-.82-.25.09-.08-.22.3-.11-.73-10.38-.11,0L83.75,15l.17-.06L83.19,4.59l-.75.27L84,26.93Zm8-13.82-.27-.74-8.33,3,.08.81Zm2.54,10L95,22.08,84.92,25.76l0,.82Z"/>
      <path class="a" d="M83.72,27.49l-.13-.37L82,4.57l11.1-4,.57,1.55-10,3.63.62,8.91,8.44-3.07.56,1.55-8.87,3.23.63,8.92,10.22-3.73.57,1.55ZM82.65,5l1.53,21.66.36-.13,0-.42-.19.07-.21-.59.35-.12-.71-10-.05,0-.21-.59.21-.08-.7-10Zm2.47,20.89,0,.42,9.9-3.61-.13-.37Zm-.75-10.62,0,.41,8.1-2.95-.14-.38ZM83.61,4.65l0,.41L92.86,1.7l-.14-.37Z"/>
    </g>
    <g>
      <path class="a" d="M109.2,27.31,107.61,4.88l1.15-.42,0,.13.83,11.51L119.21.65l1.1-.4.06.17-7.46,12.43,9,9.79,0,.14-1.12.41-8.58-9.27-2.5,4.18.63,8.9-1.16.42Zm1-.47-.59-8.38-.13.23-.21-.14.31-.52-.94-13.26-.74.27,1.56,22.07Zm2-13.11-.42-.47.16-.15.37.42L120,.62l-.6.22-9.71,15.65.08,1.19Zm9.51,8.93-8.83-9.61-.41.67,8.52,9.2Z"/>
      <path class="a" d="M109.13,27.67l-.12-.35L107.4,4.74l1.48-.53.13.37.78,10.9,9.29-15L120.42,0l.16.44,0,.08-7.39,12.3,8.94,9.72.13.36-1.43.52-8.49-9.17L110,18.15l.63,9Zm-.12-9,.58,8.19.36-.13-.55-7.79Zm3.62-4.94,8.33,9,.31-.11-8.45-9.21Zm-4.57-8.53L109,18.54l.33-.55L108.42,5Zm1.8,11.37,0,.5,2-3.28-.16-.19ZM112,13l.15.17L119.52,1h0Z"/>
    </g>
    <g>
      <path class="a" d="M138.2,25.73l-1.38-.64-2-2.57-1.07-2.94-.44-4.2-.09-3.24.89-3.62,1.24-2.66,2.56-2.05,3.9-1.43,2.3.26,1.39.64,2,2.57,1.07,2.94L149,13l.09,3.23-.9,3.63L147,22.51l-2.55,2L140.51,26Zm6.07-1.37,2.51-2L148,19.77l.87-3.59L148.77,13l-.43-4.17L147.29,6l-2-2.49L144,2.87l-2.23-.25L138,4,135.5,6,134.3,8.6l-.88,3.58.1,3.18.43,4.17L135,22.42l2,2.49,1.27.59,2.24.25Zm-6.45.39-2.07-2.58-1.07-2.94-.44-4.2-.09-3.24L135,8.17l.63-1.35,2.56-2.05,3.9-1.42,2.34.27,2.06,2.58,1.07,2.94.44,4.2.09,3.23-.89,3.63-.63,1.35-2.55,2.05L140.16,25Zm6.1-1.35,2.51-2,.6-1.28.87-3.59-.1-3.17-.43-4.17L146.32,6.3l-1.95-2.46-2.21-.25L138.36,5l-2.51,2-.59,1.28-.87,3.58.09,3.18.43,4.17L136,22.07l2,2.46,2.21.25Z"/>
      <path class="a" d="M140.53,26.19l-2.41-.28-1.43-.66-2.08-2.66-1.08-3-.44-4.2L133,12.12v0l.89-3.63,1.28-2.74,2.64-2.11,3.95-1.44,2.41.28,1.43.66,2.08,2.66,1.08,3,.44,4.2.09,3.28v0l-.89,3.63-1.28,2.74-2.64,2.11Zm-2.23-.88,2.16.24,3.72-1.36,2.44-2,1.19-2.55.86-3.53-.1-3.14-.43-4.14-1-2.83-1.92-2.43L144,3.06l-2.16-.24-3.72,1.36-2.45,2-1.18,2.55-.86,3.53.1,3.14.42,4.13,1,2.84,1.91,2.43Zm1.88-.09-2.47-.28-2.14-2.7-1.08-3-.44-4.2L134,11.77v0l.89-3.63.67-1.43,2.64-2.11,4-1.43,2.46.28,2.15,2.7,1.08,3,.44,4.2.09,3.28v0l-.89,3.63-.66,1.42-2.64,2.12ZM138,24.34l2.09.24,3.72-1.35,2.44-2,.58-1.23.85-3.53-.09-3.14-.43-4.13-1-2.84L144.26,4l-2.08-.24-3.72,1.35L136,7.1l-.57,1.23-.86,3.52.1,3.15.43,4.13,1,2.84Z"/>
    </g>
    <g>
      <path class="a" d="M157.65,28l-.39,0-.47-.22-.29-.27-.36-.45-.19-.52v-.58l0-.39.22-.47.27-.29.45-.36.52-.18.58,0,.38.05.47.22.29.27.36.45.19.51,0,.58,0,.39-.22.48-.27.28-.45.36-.52.19Zm1.07-.24.44-.35.27-.28.21-.46.05-.39,0-.56-.18-.5-.35-.44-.29-.27-.46-.21L158,24.2l-.56,0-.51.18-.44.35-.27.28-.21.46,0,.39v.56l.18.51.36.44.28.26.46.22.38,0h.57Zm-1.13.07-.41-.1,0,0,0,0-.12-.09-.14,0v0h0l-.32-.24-.36-.46-.19-.51,0-.58.1-.39,0,0,0,0,.08-.11,0-.15h0v.05l.24-.34.45-.36.52-.19h.58l.4.1,0,0,0,0,.13.09.13,0v0h-.05l.33.24.36.45.18.51,0,.58-.1.4,0,0,0,0-.08.11,0,.15h0l0-.06-.25.34-.45.36-.52.19Zm1.07-.23.44-.35.3-.42.12-.48,0-.57-.18-.5-.35-.44-.4-.3-.5-.12h-.56l-.51.19-.44.35-.3.41-.12.49,0,.56.18.51.35.43.41.3.49.12h.56Zm-1.09-.33-.23-.11-.3-.28-.13-.35v-.57l.16-.64.44-.36.35-.12.41.05.3.28.07.19-.21.08-.06-.19-.19-.17-.25,0-.33.12-.37.3-.11.44,0,.55.11.33.21.2.46.11.33-.11.27-.29.05-.4.19-.07v0l0,.41-.11.23-.28.3-.35.12Zm.73-.12.27-.28.11-.22,0-.37-.12.05,0,.39-.29.3-.34.13-.4-.1,0,0,0,0-.08-.08-.17,0v0l.11,0-.17-.16-.13-.35v-.57l.09-.39,0,0,0,0,.07-.05,0-.2h0l0,.15.34-.28.34-.12.21,0-.07-.06,0,0,.11.1.15,0v0h-.09l.15.14.06.15.13,0-.06-.15-.28-.27-.38,0-.33.12-.44.34-.15.63v.55l.13.33.29.27.21.11.39,0Z"/>
      <path class="a" d="M157.64,28.15l-.46-.06-.53-.26-.29-.27L156,27l-.2-.57v-.58l.07-.48.25-.53.27-.28.53-.41.57-.2H158l.48.06.52.25.29.27.41.53.2.58v.58l-.06.48-.26.52-.27.28-.52.42-.58.19Zm-.46-.71.43.11.51,0,.44-.16.4-.31.26-.36.1-.43v-.5l-.16-.44-.32-.4-.35-.25-.43-.11h-.51l-.44.16-.39.32-.27.36-.1.42v.5l.17.45.31.39Zm.82,0-.51-.08-.29-.14-.33-.31-.15-.45,0-.6.18-.73.2-.19h0l.33-.25.39-.14.23,0h0l.28,0,.22.19h0l.16.16.15.42-.57.21-.12-.33-.11-.09-.14,0-.25.09-.3.24-.08.35v.5l.09.25.14.14.35.08.23-.08.19-.21.06-.46.49-.18,0,0,.06,0,0,.15,0,.06v.07l-.07.47-.14.28-.31.34Z"/>
    </g>
  </g>
</svg>
